# xmcd
#
# Track frame offsets: 
#        150
#        11172
#        23152
#        34097
#        51422
#        66907
#        80140
#        96177
#        106442
#        119587
#
# Disc length: 1771 seconds
#
# Revision: 6
# Processed by: cddbd v1.5.1PL2 Copyright (c) Steve Scherf et al.
# Submitted via: ExactAudioCopy v0.90b4
#
DISCID=8b06e90a
DTITLE=Crystal Gayle - Classic Crystal
DYEAR=1979
DGENRE=Country
TTITLE0=Somebody Loves You
TTITLE1=Don't It Make My Brown Eyes Blue
TTITLE2=Ready For The Times To Get Better
TTITLE3=You Never Miss A Real Good Thing ('Till He Says Goodbye)
TTITLE4=When I Dream
TTITLE5=I'll Do It All Over Again
TTITLE6=I'll Get Over You
TTITLE7=Wrong Road Again
TTITLE8=Talking In Your Sleep
TTITLE9=Why Have You Left The One You Left Me For
EXTD=Originally Released 1979\nCD Edition Released March 1994\n\nAMG E
EXTD=XPERT REVIEW: Of Gayle's many overlapping hits collections, this 
EXTD=one's the best. Given her crossover success ("Don't It Make My Br
EXTD=own Eyes Blue," included here, hit number two pop) it's interesti
EXTD=ng to note that all of these tracks were produced by Allen Reynol
EXTD=ds, known these days for his work with Garth Brooks. -- Dan Coope
EXTD=r\n\nAmazon.com Editorial Review\nAs time passes, the sophisticat
EXTD=ed country pop created by Crystal Gayle and producer Allen Reynol
EXTD=ds gains luster. In the '70s, Reynolds's uptown arrangements and 
EXTD=the pure beauty of Gayle's alto were closer in tone to the countr
EXTD=ypolitan hits of Olivia Newton-John than to the rural twang of he
EXTD=r older sister, Loretta Lynn. Her crossover success with "Don't I
EXTD=t Make Your Brown Eyes Blue" helped lead country music to a large
EXTD=r middle-American audience. In retrospect the spare, tasteful qua
EXTD=lity of her songs holds up better than the music of most of pop c
EXTD=ountry stylists of the era. Of her many greatest hits collections
EXTD=, Classic Crystal represents the best selection of her most memor
EXTD=able work. --Michael McCall \n\nAMAZON.COM CUSTOMER REVIEW\nHer T
EXTD=ruly Classic Material, March 17, 2003\nReviewer: James E. Bagley 
EXTD=(Sanatoga, PA USA]\nThese hits from Crystal's United Artists tenu
EXTD=re (1975 - 1979) are what made her a star. Over twenty years late
EXTD=r, they hold up remarkably well. The jewel of course is her signa
EXTD=ture hit, the bluesy "Don't It Make My Brown Eyes," which crossed
EXTD=over to # 2 pop, while my personal favorite is the spine-tinglin
EXTD=g "Talkin' In Your Sleep." The gentle toe-tapper "Somebody Loves 
EXTD=You" was the recording that made me first fall in love with Cryst
EXTD=al's voice while the rollicking "Why Have You Left The One You Le
EXTD=ft Me For" has a hook that 24 years later is still stuck in my he
EXTD=ad! The lovely "When I Dream" may be Crystal's most heartfelt rec
EXTD=ording with "I'll Get Over You" her most economically effective (
EXTD=sparsely produced yet emotion-inducing). \nI give this collection
EXTD=five stars because they are all great recordings and it is very 
EXTD=thematically varied, but I wish Capitol would get with it and put
EXTD=out a United Artists retrospective with more tracks (Cartified H
EXTD=its includes the same 10 tracks while the Madacy Best Of just sub
EXTD=stitutes "Wrong Road Again" with "Your Old Cold Shoulder"). Let's
EXTD=get "Shoulder," "Your Kisses Will" "Karneval," "One More Time Fo
EXTD=r Mexico," and "Heart Mender," (among others) added on so we can 
EXTD=enjoy all of Crystal's United Artists singles on one cd!
EXTT0=
EXTT1=
EXTT2=
EXTT3=
EXTT4=
EXTT5=
EXTT6=
EXTT7=
EXTT8=
EXTT9=
PLAYORDER=
